<svg id="Capa_1" enable-background="new 0 0 512 512" height="512" viewBox="0 0 512 512" width="512" xmlns="http://www.w3.org/2000/svg"><g><g><g><path d="m430.021 173.643c-.115-54.297-25.532-107.873-73.606-141.891-76.894-54.41-184.11-37.168-240.216 38.498-23.058 31.097-34.187 67.39-34.204 103.392h-.026v260.499c0 13.731 11.131 24.862 24.862 24.862 13.731 0 24.862-11.131 24.862-24.862v-77.27c0-13.731 11.131-24.862 24.862-24.862 13.731 0 24.862 11.131 24.862 24.862v130.265c0 13.731 11.131 24.862 24.862 24.862 13.731 0 24.862-11.131 24.862-24.862v-110.223c0-13.731 11.131-24.862 24.862-24.862 13.731 0 24.862 11.131 24.862 24.862v27.926c0 13.731 11.131 24.862 24.862 24.862 13.731 0 24.862-11.131 24.862-24.862v-32.063c0-13.731 11.131-24.862 24.862-24.862 13.731 0 24.862 11.131 24.862 24.862v77.403c0 13.731 11.131 24.862 24.862 24.862 13.731 0 24.862-11.131 24.862-24.862v-276.536z" fill="#5591d6"/><g fill="#1475cb"><path d="m396.414 204.007v209.858c0 5.542-2.246 10.57-5.882 14.196-2.74 2.74-6.274 4.698-10.219 5.481v-60.76c0-6.861-2.781-13.083-7.283-17.585-4.316-4.316-10.219-7.057-16.761-7.263v-17.317c0-5.532-2.246-10.539-5.872-14.165-3.616-3.626-8.623-5.862-14.155-5.862-11.064 0-20.027 8.963-20.027 20.027v8.417c0 11.085-8.993 20.078-20.078 20.078s-20.068-8.993-20.068-20.078v-32.08c0-11.064-8.973-20.027-20.027-20.027h-.103c-11.054 0-20.016 8.963-20.016 20.027v32.08c0 5.542-2.246 10.559-5.882 14.196-3.637 3.637-8.653 5.882-14.196 5.882-11.085 0-20.078-8.993-20.078-20.078v-64.458c0-11.054-8.963-20.027-20.016-20.027h-.103c-11.054 0-20.027 8.973-20.027 20.027v57.453c-13.3.495-23.931 11.435-23.931 24.848v60.647c-9.241-1.793-16.215-9.921-16.215-19.687v-193.83h.01c-.031-29.968 9.509-60.214 29.288-85.845 45.946-59.534 131.564-72.205 192.757-28.495 38.508 27.516 58.823 70.65 58.854 114.34z"/><path d="m430.028 173.647v276.531c0 6.871-2.781 13.083-7.283 17.575-4.492 4.502-10.714 7.283-17.575 7.283-6.48 0-12.383-2.483-16.802-6.552.258-.237.515-.484.762-.731 4.502-4.492 7.283-10.704 7.283-17.575v-276.531h-.01c-.113-54.301-25.538-107.881-73.606-141.897-25.415-17.987-54.146-28.134-83.249-30.936 40.105-3.863 81.662 6.026 116.864 30.936 48.079 34.017 73.493 87.596 73.606 141.897z"/></g></g><g><g><path d="m296.138 328.74c11.086 0 20.074-8.987 20.074-20.074v-8.419c0-11.06 8.966-20.026 20.026-20.026 11.06 0 20.026 8.966 20.026 20.026v83.255c0 11.086 8.987 20.074 20.074 20.074 11.086 0 20.074-8.987 20.074-20.074v-209.859h-.029c-.03-43.691-20.342-86.826-58.859-114.341-61.188-43.711-146.812-31.036-192.754 28.494-19.783 25.634-29.313 55.871-29.288 85.847h-.008v193.823c0 11.086 8.987 20.074 20.074 20.074 11.086 0 20.074-8.987 20.074-20.074v-123.257c0-11.06 8.966-20.026 20.026-20.026h.095c11.06 0 20.026 8.966 20.026 20.026v64.457c0 11.086 8.987 20.074 20.074 20.074 11.086 0 20.074-8.987 20.074-20.074v-32.083c0-11.06 8.966-20.026 20.026-20.026h.096c11.06 0 20.026 8.966 20.026 20.026v32.083c0 11.086 8.987 20.074 20.073 20.074z" fill="#f8f3f1"/><path d="m396.414 173.647v209.858c0 5.542-2.246 10.559-5.882 14.186-3.637 3.637-8.654 5.882-14.196 5.882-11.085 0-20.068-8.983-20.068-20.068v-209.858h-.031c-.031-43.69-20.346-86.834-58.865-114.35-18.749-13.392-39.775-21.479-61.265-24.56 34.594-4.955 71.021 2.843 101.421 24.56 38.508 27.516 58.823 70.66 58.854 114.35z" fill="#e5e1e5"/><g><g><path d="m278.815 236.817-30.142-50.26 22.087-13.246 30.142 50.26c1.463 2.44.672 5.604-1.768 7.067l-13.252 7.948c-2.44 1.462-5.604.671-7.067-1.769z" fill="#fee265"/></g></g><g><path d="m256 166.305c-4.267 0-7.726-3.459-7.726-7.726v-59.974c0-4.267 3.459-7.726 7.726-7.726s7.726 3.459 7.726 7.726v59.973c0 4.268-3.459 7.727-7.726 7.727z" fill="#5591d6"/></g><g><circle cx="255.943" cy="173.643" fill="#fcb44d" r="20.213"/></g></g><g><g><g><g id="XMLID_282_"><path d="m255.643 76.213c-4.267 0-7.726-3.459-7.726-7.726v-.135c0-4.267 3.459-7.726 7.726-7.726s7.726 3.459 7.726 7.726v.135c0 4.267-3.459 7.726-7.726 7.726z" fill="#c9c0c7"/></g></g></g><g><g><g id="XMLID_272_"><path d="m360.997 181.131c-.01 0-.02 0-.029 0l-.135-.001c-4.267-.016-7.714-3.488-7.698-7.755.016-4.258 3.472-7.698 7.726-7.698h.029l.135.001c4.267.016 7.714 3.488 7.698 7.755-.016 4.258-3.473 7.698-7.726 7.698z" fill="#c9c0c7"/></g></g><g><g id="XMLID_270_"><path d="m151.025 181.131c-.01 0-.02 0-.03 0l-.134-.001c-4.267-.016-7.713-3.488-7.697-7.756.016-4.257 3.472-7.697 7.726-7.697h.03l.134.001c4.267.016 7.713 3.488 7.697 7.756-.016 4.257-3.472 7.697-7.726 7.697z" fill="#c9c0c7"/></g></g></g><g><g><g id="XMLID_280_"><path d="m203.231 90.421c-2.67 0-5.266-1.385-6.698-3.864l-.067-.117c-2.134-3.695-.869-8.421 2.826-10.555 3.694-2.133 8.42-.869 10.555 2.826l.067.117c2.134 3.695.869 8.421-2.826 10.555-1.217.704-2.546 1.038-3.857 1.038z" fill="#c9c0c7"/></g></g></g><g><g><g id="XMLID_279_"><path d="m164.924 128.934c-1.303 0-2.624-.33-3.836-1.025l-.117-.067c-3.702-2.122-4.983-6.844-2.861-10.546 2.123-3.702 6.845-4.983 10.546-2.861l.117.067c3.702 2.122 4.983 6.844 2.861 10.546-1.427 2.491-4.032 3.886-6.71 3.886z" fill="#c9c0c7"/></g></g><g><g id="XMLID_277_"><path d="m347.065 233.398c-1.311 0-2.64-.335-3.857-1.037l-.117-.067c-3.695-2.134-4.961-6.86-2.826-10.555 2.134-3.696 6.861-4.96 10.555-2.826l.117.067c3.695 2.134 4.961 6.86 2.826 10.555-1.432 2.478-4.029 3.863-6.698 3.863z" fill="#c9c0c7"/></g></g></g><g><g><g id="XMLID_275_"><path d="m308.655 90.421c-1.316 0-2.649-.337-3.87-1.045-3.691-2.141-4.948-6.869-2.806-10.56l.067-.116c2.141-3.692 6.869-4.949 10.56-2.806 3.691 2.141 4.948 6.869 2.806 10.56l-.067.116c-1.433 2.47-4.025 3.851-6.69 3.851z" fill="#c9c0c7"/></g></g></g><g><g><g id="XMLID_271_"><path d="m346.962 128.934c-2.67 0-5.266-1.385-6.698-3.864-2.134-3.695-.869-8.421 2.826-10.555l.117-.067c3.693-2.133 8.42-.869 10.555 2.826 2.134 3.695.869 8.421-2.826 10.555l-.117.067c-1.216.703-2.545 1.038-3.857 1.038z" fill="#c9c0c7"/></g></g></g></g></g></g></g></svg>