<?xml version="1.0" encoding="utf-8"?>
<!-- Generator: Adobe Illustrator 25.1.0, SVG Export Plug-In . SVG Version: 6.00 Build 0)  -->
<svg version="1.1" id="Layer_1" xmlns="http://www.w3.org/2000/svg" xmlns:xlink="http://www.w3.org/1999/xlink" x="0px" y="0px"
	 viewBox="0 0 222.4 222.5" style="enable-background:new 0 0 222.4 222.5;" xml:space="preserve">
<style type="text/css">
	.st0{fill:#82A0ED;}
	.st1{fill:#79CFE2;}
	.st2{fill:#B3E8AF;}
	.st3{fill:#E5E5E5;}
</style>
<circle class="st0" cx="111.4" cy="111.5" r="111"/>
<path class="st1" d="M62.9,106.9l6.7,34.3l-29.3-7.6L62.9,106.9z"/>
<path class="st2" d="M72.6,128.7L12,100.9l95.2-29.1L72.6,128.7z"/>
<path class="st2" d="M80,188.1l-37-55.4l96.4,25.1L80,188.1z"/>
<path class="st1" d="M60.2,157.1l-36.3-18.4l31.1-22L60.2,157.1z"/>
<path class="st2" d="M139.6,107l-11.2-75.1l83.7,52.4L139.6,107z"/>
<path class="st2" d="M186,133.3L166.6,112l44.5,7.1L186,133.3z"/>
<path class="st3" d="M84.8,43l-53.5-4.6l88-36.5L84.8,43z"/>
</svg>
