<svg id="Capa_1" enable-background="new 0 0 512 512" height="512" viewBox="0 0 512 512" width="512" xmlns="http://www.w3.org/2000/svg"><g><circle cx="256" cy="256" fill="#ffdec7" r="256"/><circle cx="256" cy="256" fill="#fec5a5" r="160"/><path d="m232.446 173.884h32v127.989h-32z" fill="#dff1f7" transform="matrix(.707 -.707 .707 .707 -95.437 245.351)"/><path d="m204.381 196.441 12.628-12.628-2.5-2.5-22.628 22.628 90.502 90.502 10-10z" fill="#cfe3e8"/><ellipse cx="158.832" cy="148.265" fill="#f5fcff" rx="48" ry="72" transform="matrix(.707 -.707 .707 .707 -58.318 155.737)"/><path d="m144.891 182.206c-28.118-28.118-35.716-66.108-16.971-84.853 4.799-4.799 10.897-7.87 17.729-9.314-14.885-2.687-28.605.19-37.729 9.314-18.745 18.745-11.147 56.735 16.971 84.853 20.92 20.92 47.334 30.474 67.191 26.279-15.695-2.834-32.759-11.848-47.191-26.279z" fill="#dff1f7"/><path d="m247.554 173.884h32v127.989h-32z" fill="#dff1f7" transform="matrix(.707 .707 -.707 .707 245.398 -116.688)"/><path d="m218.99 279.815 88.501-88.502-10-10-90.501 90.502 22.627 22.628 2-2z" fill="#cfe3e8"/><path d="m427.154 120.627c-6.191-6.803-16.732-6.989-23.161-.56 6.248-6.248 6.248-16.379 0-22.627s-16.379-6.248-22.627 0c6.43-6.43 6.243-16.97-.56-23.161-6.372-5.799-16.295-5.238-22.387.854l-56.163 56.163c-18.745 18.745-18.745 49.137 0 67.882 18.745 18.745 49.137 18.745 67.882 0l56.163-56.163c6.092-6.093 6.652-16.017.853-22.388z" fill="#f5fcff"/><path d="m322.256 199.176c-18.745-18.745-18.745-49.137 0-67.882l56.163-56.162c.53-.53 1.09-1.019 1.673-1.465-6.379-5.139-15.804-4.404-21.673 1.465l-56.163 56.162c-18.745 18.745-18.745 49.137 0 67.882 11.931 11.931 28.58 16.267 43.941 13.01-8.773-1.859-17.127-6.196-23.941-13.01z" fill="#dff1f7"/><g><path d="m336.197 150.334c-1.977 0-3.955-.755-5.464-2.263-3.017-3.017-3.017-7.91 0-10.927l45.168-45.168c3.018-3.017 7.91-3.017 10.928 0 3.017 3.017 3.017 7.91 0 10.927l-45.168 45.168c-1.509 1.509-3.487 2.263-5.464 2.263z" fill="#dff1f7"/></g><g><path d="m358.825 172.962c-1.977 0-3.955-.755-5.464-2.263-3.017-3.017-3.017-7.91 0-10.927l45.168-45.168c3.018-3.017 7.91-3.017 10.928 0 3.017 3.017 3.017 7.91 0 10.927l-45.168 45.168c-1.509 1.508-3.487 2.263-5.464 2.263z" fill="#dff1f7"/></g><path d="m425.202 413.639-.995.995c-9.098 9.098-23.849 9.098-32.946 0l-51.409-51.409-5.707-25.725-28.189-8.171-29.036-29.036c-2.734-2.734-2.734-7.166 0-9.9l24.042-24.042c2.734-2.734 7.166-2.734 9.9 0l29.036 29.036 6.602 26.113 27.293 7.784 51.409 51.409c9.098 9.098 9.098 23.849 0 32.946z" fill="#e2ae83"/><path d="m411.261 414.634-108.685-108.685c-5.858-5.858-5.858-15.355 0-21.213l13.335-13.335-5.05-5.05c-2.734-2.734-7.166-2.734-9.899 0l-24.042 24.042c-2.734 2.734-2.734 7.166 0 9.899l29.036 29.036 33.896 33.896 51.409 51.409c7.16 7.16 17.822 8.685 26.473 4.575-2.341-1.112-4.536-2.636-6.473-4.574z" fill="#d39c72"/><path d="m315.874 305.338h48v47.937h-48z" fill="#ef6074" transform="matrix(.707 -.707 .707 .707 -133.308 336.779)"/><path d="m320.833 317.309h14.142v47.937h-14.142z" fill="#e2546c" transform="matrix(.707 -.707 .707 .707 -145.279 331.821)"/><path d="m87.295 414.137c-9.373-9.373-9.373-24.569 0-33.941l50.912-50.912 27.46-8.951 6.437-24.946 29.036-29.036c2.734-2.734 7.166-2.734 9.899 0l24.042 24.042c2.734 2.734 2.734 7.166 0 9.9l-29.036 29.036-26.045 9.004-7.852 24.892-50.912 50.912c-9.372 9.372-24.568 9.372-33.941 0z" fill="#e2ae83"/><path d="m107.295 414.137c-9.373-9.373-9.373-24.568 0-33.941l108.794-108.794-5.05-5.05c-2.734-2.734-7.166-2.734-9.9 0l-29.036 29.036-33.896 33.896-50.912 50.912c-9.373 9.373-9.373 24.569 0 33.941 7.293 7.293 18.113 8.911 26.971 4.854-2.525-1.158-4.891-2.775-6.971-4.854z" fill="#d39c72"/><path d="m148.126 305.338h48v47.937h-48z" fill="#ef6074" transform="matrix(.707 .707 -.707 .707 283.269 -25.26)"/><path d="m136.187 310.265h47.937v14.142h-47.937z" fill="#e2546c" transform="matrix(.707 -.707 .707 .707 -177.482 206.192)"/></g></svg>