<?xml version="1.0" encoding="iso-8859-1"?>
<!-- Generator: Adobe Illustrator 19.0.0, SVG Export Plug-In . SVG Version: 6.00 Build 0)  -->
<svg version="1.1" id="Layer_1" xmlns="http://www.w3.org/2000/svg" xmlns:xlink="http://www.w3.org/1999/xlink" x="0px" y="0px"
	 viewBox="0 0 504.131 504.131" style="enable-background:new 0 0 504.131 504.131;" xml:space="preserve">
<circle style="fill:#ED9200;" cx="252.065" cy="252.069" r="252.062"/>
<path style="fill:#EA6F00;" d="M73.834,73.823c98.43-98.43,258.032-98.43,356.462,0c98.438,98.446,98.446,258.032,0,356.478"/>
<path style="fill:#1D2321;" d="M454.975,240.089l-5.23-80.731c0.725-1.15,1.213-2.45,1.213-4.064
	c0-17.093-42.89-30.956-95.799-30.956c-47.356,0-86.567,11.106-94.326,25.71c-3.261,1.725-5.585,5.033-5.845,8.972l-5.262,81.203
	c-2.261,2.828-3.679,6.372-3.679,10.264v78.864c0,6.829,4.167,12.705,10.075,15.218v13.643c0,9.121,7.396,16.51,16.51,16.51h16.51
	c9.121,0,16.51-7.389,16.51-16.51V345.86h93.507v12.351c0,9.121,7.396,16.51,16.51,16.51h16.51c9.106,0,16.51-7.389,16.51-16.51
	v-13.643c5.923-2.505,10.075-8.381,10.075-15.218v-78.864C458.755,246.516,457.298,242.932,454.975,240.089z M272.191,233.992
	l4.104-63.26h152.127l4.096,63.26H272.191z"/>
<path style="fill:#363D3B;" d="M449.744,159.358c0.725-1.15,1.213-2.45,1.213-4.064c0-17.093-42.89-30.956-95.799-30.956
	c-47.356,0-86.567,11.106-94.326,25.71c-1.678,0.874-3.096,2.198-4.104,3.781l19.401,19.401l0.165-2.505h152.127l4.096,63.26h-95.65
	l111.813,111.821v-1.245c5.923-2.505,10.075-8.381,10.075-15.218v-78.856c0-3.97-1.465-7.554-3.781-10.398L449.744,159.358z"/>
<g>
	<circle style="fill:#ED9200;" cx="280.579" cy="310.776" r="13.06"/>
	<circle style="fill:#ED9200;" cx="424.255" cy="310.776" r="13.068"/>
	<path style="fill:#ED9200;" d="M389.541,150.315c0,3.938-3.182,7.121-7.105,7.121h-60.062c-3.923,0-7.105-3.182-7.105-7.121l0,0
		c0-3.907,3.182-7.089,7.105-7.089h60.062C386.359,143.226,389.541,146.408,389.541,150.315L389.541,150.315z"/>
</g>
<path style="fill:#1D2321;" d="M216.13,333.375v-42.858c0-4.372-3.537-7.908-7.916-7.908h-2.458l-11.91-47.167l-6.664-5.199h-20.567
	c2.844-1.552,4.797-4.537,4.797-8.019v-7.444c0-5.081-4.096-9.169-9.153-9.169h-57.305c-5.057,0-9.169,4.096-9.169,9.169v7.444
	c0,3.474,1.969,6.459,4.813,8.019H80.033l-6.664,5.199l-11.91,47.167h-2.458c-4.356,0-7.901,3.537-7.901,7.908v42.858
	c-3.159,0-5.734,2.552-5.734,5.727s2.568,5.742,5.734,5.742h2.009v21.063c0,4.86,3.954,8.814,8.814,8.814h11.028
	c4.86,0,8.806-3.954,8.806-8.814v-21.063h103.7v21.063c0,4.86,3.938,8.814,8.814,8.814h11.012c4.86,0,8.814-3.954,8.814-8.814
	v-21.063h2.016c3.151,0,5.727-2.568,5.727-5.742S219.281,333.375,216.13,333.375z M85.397,243.996h96.437l9.752,38.613H75.653
	L85.397,243.996z"/>
<path style="fill:#363D3B;" d="M216.13,333.375v-42.858c0-4.372-3.537-7.908-7.916-7.908h-2.458l-11.91-47.167l-6.664-5.199h-20.567
	c2.844-1.552,4.797-4.537,4.797-8.019v-7.444c0-5.081-4.096-9.169-9.153-9.169h-57.305c-5.057,0-9.169,4.096-9.169,9.169v7.444
	c0,3.474,1.969,6.459,4.813,8.019H80.033l-3.552,2.788l10.973,10.973h94.381l9.752,38.613h-65.52l87.135,87.135
	c0.559-1.166,0.906-2.458,0.906-3.844v-21.063h2.017c3.151,0,5.727-2.568,5.727-5.742S219.281,333.375,216.13,333.375z"/>
<g>
	<circle style="fill:#ED9200;" cx="76.607" cy="309.595" r="12.32"/>
	<circle style="fill:#ED9200;" cx="190.625" cy="309.595" r="12.32"/>
</g>
<g>
</g>
<g>
</g>
<g>
</g>
<g>
</g>
<g>
</g>
<g>
</g>
<g>
</g>
<g>
</g>
<g>
</g>
<g>
</g>
<g>
</g>
<g>
</g>
<g>
</g>
<g>
</g>
<g>
</g>
</svg>
